<?xml version="1.0" encoding="UTF-8"?>
<svg version="1.1" viewBox="0 0 44 43" xmlns="http://www.w3.org/2000/svg">
    <title>Group 4</title>
    <desc>Created with Sketch.</desc>
    <g fill="none" fill-rule="evenodd">
        <g transform="translate(-465 -366)" fill="#543700" fill-rule="nonzero">
            <g transform="translate(450 350)">
                <g transform="translate(15 16)">
                    <polygon points="0 15.348 3.7939 19.863 0.82272 24.067 5.2959 30.281 0.82272 42.431 11.453 29.319 7.3028 23.431 9.1573 19.863 6.0972 14.216 10.247 0.59839"/>
                    <polygon points="15.27 15.348 19.064 19.863 16.093 24.067 20.566 30.281 16.093 42.431 26.723 29.319 22.573 23.431 24.427 19.863 21.367 14.216 25.517 0.59839"/>
                    <polygon points="31.63 15.348 35.424 19.863 32.453 24.067 36.926 30.281 32.453 42.431 43.083 29.319 38.933 23.431 40.788 19.863 37.728 14.216 41.878 0.59839"/>
                </g>
            </g>
        </g>
    </g>
</svg>