<svg width="100" height="100" xmlns="http://www.w3.org/2000/svg"><g fill="#FFF" fill-rule="nonzero"><path d="M71.854 37.887H62.7v-4.921c0-8.209-6.419-14.811-14.272-14.811-7.853 0-14.272 6.602-14.272 14.81v23.597H25V32.966C25 19.758 35.46 9 48.427 9c12.968 0 23.427 10.758 23.427 23.966v4.921z"/><path d="M21.27 46h54.46c1.254 0 2.27 1.02 2.27 2.28v44.44A2.274 2.274 0 0 1 75.73 95H21.27A2.274 2.274 0 0 1 19 92.72V48.28A2.274 2.274 0 0 1 21.27 46zM42 65.954a6.943 6.943 0 0 0 3.5 6.023v8.705A2.326 2.326 0 0 0 47.833 83h2.334a2.326 2.326 0 0 0 2.333-2.318v-8.705a6.943 6.943 0 0 0 3.5-6.023C56 62.114 52.866 59 49 59s-7 3.113-7 6.954z"/></g></svg>