<?xml version="1.0" encoding="UTF-8"?>
<svg width="100px" height="100px" viewBox="0 0 100 100" version="1.1" xmlns="http://www.w3.org/2000/svg" xmlns:xlink="http://www.w3.org/1999/xlink">
    <!-- Generator: Sketch 51.3 (57544) - http://www.bohemiancoding.com/sketch -->
    <title>bullet</title>
    <desc>Created with Sketch.</desc>
    <defs></defs>
    <g id="bullet" stroke="none" stroke-width="1" fill="none" fill-rule="evenodd">
        <g id="Group" transform="translate(49.735572, 50.395826) rotate(-30.000000) translate(-49.735572, -50.395826) translate(27.235572, 17.895826)" fill="#FFFFFF">
            <path d="M11.8875939,16.1808863 C11.7144977,17.0386753 11.624053,17.9227871 11.624053,18.8261278 C11.624053,22.6922482 13.2807032,26.2061587 15.9830729,28.8117506 L15.9830729,29.4070937 L0,29.4070937 L0,28.8117506 C2.70236973,26.2061587 4.35901989,22.6922482 4.35901989,18.8261278 C4.35901989,17.9227871 4.26857517,17.0386753 4.09547903,16.1808863 L11.8875939,16.1808863 Z M7.12447241,1.52460536 C7.59894121,-0.508245584 8.36824017,-0.508157986 8.84270406,1.52460536 L11.9205902,14.7113077 L4.04668711,14.7113077 L7.12447241,1.52460536 Z M0,61.7378228 L15.9830729,61.7378228 L15.9830729,64.67698 L0,64.67698 L0,61.7378228 Z M0,30.8766723 L15.9830729,30.8766723 L15.9830729,60.2682442 L0,60.2682442 L0,30.8766723 Z" id="Combined-Shape"></path>
            <path d="M17.4915365,30.8766723 L30.4915365,30.8766723 L30.4915365,60.2682442 L17.4915365,60.2682442 L17.4915365,30.8766723 Z M17.4915365,61.7378228 L30.4915365,61.7378228 L30.4915365,64.67698 L17.4915365,64.67698 L17.4915365,61.7378228 Z M17.4915365,29.4070937 L17.4915365,28.8117506 C16.9508678,28.2904445 16.4520581,27.7327794 16,27.1432092 C17.8074183,24.7859896 18.8674834,21.9187456 18.8674834,18.8261278 C18.8674834,17.9227871 18.7770387,17.0386753 18.6039426,16.1808863 L26.3960574,16.1808863 C26.2229613,17.0386753 26.1325166,17.9227871 26.1325166,18.8261278 C26.1325166,22.6922482 27.7891667,26.2061587 30.4915365,28.8117506 L30.4915365,29.4070937 L17.4915365,29.4070937 Z M21.632936,1.52460536 C22.1074048,-0.508245584 22.8767037,-0.508157986 23.3511676,1.52460536 L26.4290537,14.7113077 L18.5551507,14.7113077 L21.632936,1.52460536 Z" id="Combined-Shape"></path>
            <path d="M31.9830729,30.8766723 L44.9830729,30.8766723 L44.9830729,60.2682442 L31.9830729,60.2682442 L31.9830729,30.8766723 Z M31.9830729,61.7378228 L44.9830729,61.7378228 L44.9830729,64.67698 L31.9830729,64.67698 L31.9830729,61.7378228 Z M31.9830729,29.4070937 L31.9830729,28.8117506 C31.4424043,28.2904445 30.9435945,27.7327794 30.4915365,27.1432092 C32.2989548,24.7859896 33.3590199,21.9187456 33.3590199,18.8261278 C33.3590199,17.9227871 33.2685752,17.0386753 33.095479,16.1808863 L40.8875939,16.1808863 C40.7144977,17.0386753 40.624053,17.9227871 40.624053,18.8261278 C40.624053,22.6922482 42.2807032,26.2061587 44.9830729,28.8117506 L44.9830729,29.4070937 L31.9830729,29.4070937 Z M36.1244724,1.52460536 C36.5989412,-0.508245584 37.3682402,-0.508157986 37.8427041,1.52460536 L40.9205902,14.7113077 L33.0466871,14.7113077 L36.1244724,1.52460536 Z" id="Combined-Shape"></path>
        </g>
    </g>
</svg>