<?xml version="1.0" encoding="UTF-8"?>
<svg width="100px" height="100px" viewBox="0 0 100 100" version="1.1" xmlns="http://www.w3.org/2000/svg" xmlns:xlink="http://www.w3.org/1999/xlink">
    <!-- Generator: Sketch 51.3 (57544) - http://www.bohemiancoding.com/sketch -->
    <title>preferences</title>
    <desc>Created with Sketch.</desc>
    <defs></defs>
    <g id="preferences" stroke="none" stroke-width="1" fill="none" fill-rule="evenodd">
        <path d="M50,81 C32.8791728,81 19,67.1208272 19,50 C19,32.8791728 32.8791728,19 50,19 C67.1208272,19 81,32.8791728 81,50 C81,67.1208272 67.1208272,81 50,81 Z M50,73 C62.7025492,73 73,62.7025492 73,50 C73,37.2974508 62.7025492,27 50,27 C37.2974508,27 27,37.2974508 27,50 C27,62.7025492 37.2974508,73 50,73 Z" id="Combined-Shape" fill="#FFFFFF" fill-rule="nonzero"></path>
        <path d="M46.489637,50.1326859 L34,28.5 L40.0621778,25 L52.5518149,46.6326859 L77.5310889,46.6326859 L77.5310889,53.6326859 L52.5518149,53.6326859 L40.0621778,75.2653718 L34,71.7653718 L46.489637,50.1326859 Z" id="Rectangle-11" fill="#FFFFFF" fill-rule="nonzero"></path>
        <path d="M43.9560224,13 L55.9560224,13 L56.9560224,25 L42.9560224,25 L43.9560224,13 Z M65.222019,15.7006561 L75.2860658,22.2363245 L69.589068,32.8450104 L57.84768,25.2200639 L65.222019,15.7006561 Z M81.5115674,29.4408708 L86.5829866,40.3165642 L76.1299114,46.2942912 L70.2132557,33.6059822 L81.5115674,29.4408708 Z M87.9120449,49.8763476 L86.2419677,61.7595644 L74.2195777,61.0797553 L76.1680012,47.2160023 L87.9120449,49.8763476 Z M82.2267457,70.5362098 L74.3540373,79.5927248 L64.6414633,72.474726 L73.8262898,61.9087919 L82.2267457,70.5362098 Z M66.2519923,84.8377747 L54.7168519,88.145423 L50.447942,76.88592 L63.9056057,73.026997 L66.2519923,84.8377747 Z M45.1951929,88.145423 L33.6600526,84.8377747 L36.0064392,73.026997 L49.4641029,76.88592 L45.1951929,88.145423 Z M25.5580075,79.5927248 L17.6852992,70.5362098 L26.0857551,61.9087919 L35.2705815,72.474726 L25.5580075,79.5927248 Z M13.6700772,61.7595644 L12,49.8763476 L23.7440437,47.2160023 L25.6924671,61.0797553 L13.6700772,61.7595644 Z M13.3290583,40.3165642 L18.4004774,29.4408708 L29.6987891,33.6059822 L23.7821335,46.2942912 L13.3290583,40.3165642 Z M24.6259791,22.2363245 L34.6900259,15.7006561 L42.0643649,25.2200639 L30.3229769,32.8450104 L24.6259791,22.2363245 Z" id="Rectangle-12" fill="#FFFFFF" fill-rule="nonzero"></path>
    </g>
</svg>