<?xml version="1.0" encoding="UTF-8"?>
<svg width="100px" height="100px" viewBox="0 0 100 100" version="1.1" xmlns="http://www.w3.org/2000/svg" xmlns:xlink="http://www.w3.org/1999/xlink">
    <!-- Generator: Sketch 51.3 (57544) - http://www.bohemiancoding.com/sketch -->
    <title>rifle-bullet</title>
    <desc>Created with Sketch.</desc>
    <defs></defs>
    <g id="rifle-bullet" stroke="none" stroke-width="1" fill="none" fill-rule="evenodd">
        <path d="M53.8875939,34.1808863 C53.7144977,35.0386753 53.624053,35.9227871 53.624053,36.8261278 C53.624053,40.6922482 55.2807032,44.2061587 57.9830729,46.8117506 L57.9830729,47.4070937 L42,47.4070937 L42,46.8117506 C44.7023697,44.2061587 46.3590199,40.6922482 46.3590199,36.8261278 C46.3590199,35.9227871 46.2685752,35.0386753 46.095479,34.1808863 L53.8875939,34.1808863 Z M49.1244724,19.5246054 C49.5989412,17.4917544 50.3682402,17.491842 50.8427041,19.5246054 L53.9205902,32.7113077 L46.0466871,32.7113077 L49.1244724,19.5246054 Z M42,79.7378228 L57.9830729,79.7378228 L57.9830729,82.67698 L42,82.67698 L42,79.7378228 Z M42,48.8766723 L57.9830729,48.8766723 L57.9830729,78.2682442 L42,78.2682442 L42,48.8766723 Z" id="Combined-Shape" fill="#FFFFFF"></path>
    </g>
</svg>