<?xml version="1.0" encoding="UTF-8"?>
<svg width="100px" height="100px" viewBox="0 0 100 100" version="1.1" xmlns="http://www.w3.org/2000/svg" xmlns:xlink="http://www.w3.org/1999/xlink">
    <!-- Generator: Sketch 51.3 (57544) - http://www.bohemiancoding.com/sketch -->
    <title>treasure</title>
    <desc>Created with Sketch.</desc>
    <defs>
        <path d="M41.7763411,43.5882353 L23.8057528,43.5882353 L23.8057528,50.5 L41.7763411,50.5 L41.7763411,51.8823529 C41.7763411,51.8823529 47.2762788,57.6392319 50.0704587,57.6392319 C52.8056906,57.6392319 58.3645764,51.8823529 58.3645764,51.8823529 L58.3645764,50.5 L76.3351646,50.5 L76.3351646,43.5882353 L58.3645764,43.5882353 L58.3645764,39.4411765 L41.7763411,39.4411765 L41.7763411,43.5882353 Z M78.8797354,40.8235294 L79.0998705,40.8235294 L79.0998705,43.2221228 C79.2012015,45.1094202 79.0998705,46.3529412 79.0998705,46.3529412 L79.0998705,74 L21.041047,74 L21.041047,46.3529412 C21.041047,46.3529412 20.9486913,45.2197272 21.041047,43.472069 L21.041047,40.8235294 L21.2979361,40.8235294 C21.9344388,36.3422868 23.8583295,30.2555878 29.4391111,27 C39.4841191,27 64.1201054,27 71.0237704,27 C76.4522711,30.1433392 78.2879119,36.2959822 78.8797354,40.8235294 Z M51.4528117,51.895101 C51.4528117,52.6515129 50.8392338,54.5910357 50.0704587,54.5910357 C49.3070063,54.5910357 48.6881058,52.641299 48.6881058,51.895101 L48.6881058,50.2640245 C47.0773987,49.6947212 45.9233999,48.1585966 45.9233999,46.3529412 C45.9233999,44.0625838 47.7801014,42.2058823 50.0704587,42.2058823 C52.3608161,42.2058823 54.2175175,44.0625838 54.2175175,46.3529412 C54.2175175,48.1585966 53.0635188,49.6947212 51.4528117,50.2640245 L51.4528117,51.895101 Z" id="path-1"></path>
    </defs>
    <g id="treasure" stroke="none" stroke-width="1" fill="none" fill-rule="evenodd">
        <mask id="mask-2" fill="white">
            <use xlink:href="#path-1"></use>
        </mask>
        <use id="Mask" fill="#FFFFFF" xlink:href="#path-1"></use>
    </g>
</svg>